<svg xmlns="http://www.w3.org/2000/svg" xmlns:xlink="http://www.w3.org/1999/xlink" width="500" zoomAndPan="magnify" viewBox="0 0 375 374.999991" height="500" preserveAspectRatio="xMidYMid meet" version="1.0"><defs><g/><clipPath id="0b30530ed3"><path d="M 73.949219 168.460938 L 309.585938 168.460938 L 309.585938 194.074219 L 73.949219 194.074219 Z M 73.949219 168.460938 " clip-rule="nonzero"/></clipPath><clipPath id="1784c2db7b"><path d="M 73.949219 180.328125 L 304.265625 180.328125 L 304.265625 199.171875 L 73.949219 199.171875 Z M 73.949219 180.328125 " clip-rule="nonzero"/></clipPath><clipPath id="13754db511"><path d="M 28.730469 168.460938 L 361.210938 168.460938 L 361.210938 199.171875 L 28.730469 199.171875 Z M 28.730469 168.460938 " clip-rule="nonzero"/></clipPath><clipPath id="388c0a3f3d"><path d="M 0 178.730469 L 371.542969 178.730469 L 371.542969 206.234375 L 0 206.234375 Z M 0 178.730469 " clip-rule="nonzero"/></clipPath></defs><rect x="-37.5" width="450" fill="#ffffff" y="-37.499999" height="449.999989" fill-opacity="1"/><rect x="-37.5" width="450" fill="#29353c" y="-37.499999" height="449.999989" fill-opacity="1"/><g clip-path="url(#0b30530ed3)"><path fill="#29353c" d="M 73.949219 168.460938 L 309.585938 168.460938 L 309.585938 194.074219 L 73.949219 194.074219 Z M 73.949219 168.460938 " fill-opacity="1" fill-rule="nonzero"/></g><g clip-path="url(#1784c2db7b)"><path fill="#29353c" d="M 73.949219 180.328125 L 304.265625 180.328125 L 304.265625 199.171875 L 73.949219 199.171875 Z M 73.949219 180.328125 " fill-opacity="1" fill-rule="nonzero"/></g><g clip-path="url(#13754db511)"><path fill="#29353c" d="M 28.730469 168.460938 L 361.210938 168.460938 L 361.210938 199.171875 L 28.730469 199.171875 Z M 28.730469 168.460938 " fill-opacity="1" fill-rule="nonzero"/></g><path stroke-linecap="butt" transform="matrix(0.00181951, -0.749998, 0.749998, 0.00181951, 187.246135, 315.906894)" fill="none" stroke-linejoin="miter" d="M 0.00207108 0.499942 L 342.435389 0.502527 " stroke="#e3d5b0" stroke-width="1" stroke-opacity="1" stroke-miterlimit="4"/><g fill="#e3d5b0" fill-opacity="1"><g transform="translate(39.500384, 260.478002)"><g><path d="M 4.589844 -153.039062 L 4.589844 -151.507812 C 17.753906 -151.507812 18.671875 -140.644531 18.671875 -110.496094 L 18.671875 -42.546875 C 18.671875 -12.394531 17.753906 -1.53125 4.589844 -1.53125 L 4.589844 0 L 114.015625 0 L 114.015625 -25.25 L 112.484375 -25.25 C 112.484375 -3.214844 65.808594 -1.53125 51.269531 -1.53125 L 31.832031 -1.53125 L 31.832031 -110.496094 C 31.832031 -140.644531 32.75 -151.507812 45.910156 -151.507812 L 45.910156 -153.039062 Z M 4.589844 -153.039062 "/></g></g></g><g fill="#e3d5b0" fill-opacity="1"><g transform="translate(202.934934, 260.478002)"><g><path d="M 4.589844 -26.78125 C 4.589844 -10.867188 14.691406 3.0625 32.445312 3.0625 C 62.898438 3.0625 80.804688 -23.875 80.804688 -61.0625 C 80.804688 -68.410156 80.5 -74.53125 79.886719 -79.425781 L 98.863281 -29.382812 C 104.679688 -13.925781 105.445312 -1.53125 83.867188 -1.53125 L 83.867188 0 L 134.0625 0 L 134.0625 -1.53125 C 124.726562 -1.53125 119.828125 -9.949219 113.097656 -26.78125 L 64.125 -156.101562 L 62.59375 -156.101562 C 52.953125 -130.695312 47.289062 -115.542969 37.953125 -90.90625 C 36.421875 -86.925781 37.1875 -82.792969 41.472656 -82.792969 C 50.195312 -82.792969 54.789062 -98.863281 62.132812 -98.863281 C 64.125 -98.863281 65.808594 -97.640625 65.808594 -94.730469 C 65.808594 -78.816406 4.589844 -64.429688 4.589844 -26.78125 Z M 17.597656 -29.691406 C 17.597656 -67.492188 67.492188 -73.917969 67.492188 -94.425781 C 67.492188 -98.40625 65.347656 -100.394531 62.441406 -100.394531 C 54.328125 -100.394531 48.667969 -84.324219 41.625 -84.324219 C 39.179688 -84.324219 37.953125 -86.160156 39.941406 -91.519531 L 57.542969 -138.347656 L 76.0625 -89.527344 C 78.816406 -80.5 79.273438 -72.082031 79.273438 -60.757812 C 79.273438 -35.660156 67.183594 -4.285156 41.625 -4.285156 C 26.628906 -4.285156 17.597656 -15.304688 17.597656 -29.691406 Z M 17.597656 -29.691406 "/></g></g></g><g clip-path="url(#388c0a3f3d)"><path fill="#29353c" d="M -3.457031 178.730469 L 371.542969 178.730469 L 371.542969 206.234375 L -3.457031 206.234375 Z M -3.457031 178.730469 " fill-opacity="1" fill-rule="nonzero"/></g><g fill="#e3d5b0" fill-opacity="1"><g transform="translate(1.836547, 199.92536)"><g><path d="M 2.75 -16.890625 L 4.53125 -16.890625 L 4.53125 -1.546875 L 14 -1.546875 L 14 0 L 2.75 0 Z M 2.75 -16.890625 "/></g></g></g><g fill="#e3d5b0" fill-opacity="1"><g transform="translate(23.746632, 199.92536)"><g><path d="M 2.75 -16.890625 L 4.53125 -16.890625 L 4.53125 0 L 2.75 0 Z M 2.75 -16.890625 "/></g></g></g><g fill="#e3d5b0" fill-opacity="1"><g transform="translate(38.732944, 199.92536)"><g><path d="M 13.34375 -4.515625 L 3.9375 -4.515625 L 1.90625 0 L 0.046875 0 L 7.765625 -16.890625 L 9.53125 -16.890625 L 17.265625 0 L 15.375 0 Z M 12.703125 -5.96875 L 8.640625 -15.046875 L 4.59375 -5.96875 Z M 12.703125 -5.96875 "/></g></g></g><g fill="#e3d5b0" fill-opacity="1"><g transform="translate(63.730982, 199.92536)"><g><path d="M 7.984375 -7.9375 L 4.53125 -4.4375 L 4.53125 0 L 2.75 0 L 2.75 -16.890625 L 4.53125 -16.890625 L 4.53125 -6.6875 L 14.453125 -16.890625 L 16.515625 -16.890625 L 9.203125 -9.25 L 17.015625 0 L 14.890625 0 Z M 7.984375 -7.9375 "/></g></g></g><g fill="#e3d5b0" fill-opacity="1"><g transform="translate(88.584261, 199.92536)"><g><path d="M 16.875 -16.890625 L 16.875 0 L 15.109375 0 L 15.109375 -7.796875 L 4.53125 -7.796875 L 4.53125 0 L 2.75 0 L 2.75 -16.890625 L 4.53125 -16.890625 L 4.53125 -9.359375 L 15.109375 -9.359375 L 15.109375 -16.890625 Z M 16.875 -16.890625 "/></g></g></g><g fill="#e3d5b0" fill-opacity="1"><g transform="translate(115.898255, 199.92536)"><g><path d="M 10.140625 0.140625 C 8.460938 0.140625 6.941406 -0.226562 5.578125 -0.96875 C 4.222656 -1.71875 3.160156 -2.742188 2.390625 -4.046875 C 1.628906 -5.359375 1.25 -6.828125 1.25 -8.453125 C 1.25 -10.078125 1.628906 -11.539062 2.390625 -12.84375 C 3.160156 -14.144531 4.222656 -15.171875 5.578125 -15.921875 C 6.941406 -16.671875 8.460938 -17.046875 10.140625 -17.046875 C 11.816406 -17.046875 13.328125 -16.675781 14.671875 -15.9375 C 16.015625 -15.195312 17.070312 -14.171875 17.84375 -12.859375 C 18.613281 -11.546875 19 -10.078125 19 -8.453125 C 19 -6.828125 18.613281 -5.359375 17.84375 -4.046875 C 17.070312 -2.734375 16.015625 -1.707031 14.671875 -0.96875 C 13.328125 -0.226562 11.816406 0.140625 10.140625 0.140625 Z M 10.140625 -1.453125 C 11.472656 -1.453125 12.675781 -1.753906 13.75 -2.359375 C 14.832031 -2.960938 15.679688 -3.796875 16.296875 -4.859375 C 16.910156 -5.929688 17.21875 -7.128906 17.21875 -8.453125 C 17.21875 -9.765625 16.910156 -10.957031 16.296875 -12.03125 C 15.679688 -13.101562 14.832031 -13.941406 13.75 -14.546875 C 12.675781 -15.148438 11.472656 -15.453125 10.140625 -15.453125 C 8.804688 -15.453125 7.59375 -15.148438 6.5 -14.546875 C 5.414062 -13.941406 4.5625 -13.101562 3.9375 -12.03125 C 3.320312 -10.957031 3.015625 -9.765625 3.015625 -8.453125 C 3.015625 -7.128906 3.320312 -5.929688 3.9375 -4.859375 C 4.5625 -3.796875 5.414062 -2.960938 6.5 -2.359375 C 7.59375 -1.753906 8.804688 -1.453125 10.140625 -1.453125 Z M 10.140625 -1.453125 "/></g></g></g><g fill="#e3d5b0" fill-opacity="1"><g transform="translate(143.839488, 199.92536)"><g><path d="M 16.796875 -16.890625 L 9.3125 0 L 7.5625 0 L 0.078125 -16.890625 L 2 -16.890625 L 8.46875 -2.21875 L 14.984375 -16.890625 Z M 16.796875 -16.890625 "/></g></g></g><g fill="#e3d5b0" fill-opacity="1"><g transform="translate(168.379167, 199.92536)"><g><path d="M 8.546875 -5.84375 L 8.546875 0 L 6.78125 0 L 6.78125 -5.84375 L 0.03125 -16.890625 L 1.9375 -16.890625 L 7.71875 -7.40625 L 13.515625 -16.890625 L 15.3125 -16.890625 Z M 8.546875 -5.84375 "/></g></g></g><g fill="#e3d5b0" fill-opacity="1"><g transform="translate(191.398961, 199.92536)"><g><path d="M 10.09375 0.140625 C 8.414062 0.140625 6.90625 -0.226562 5.5625 -0.96875 C 4.21875 -1.707031 3.160156 -2.734375 2.390625 -4.046875 C 1.628906 -5.359375 1.25 -6.828125 1.25 -8.453125 C 1.25 -10.078125 1.628906 -11.546875 2.390625 -12.859375 C 3.160156 -14.171875 4.222656 -15.195312 5.578125 -15.9375 C 6.929688 -16.675781 8.441406 -17.046875 10.109375 -17.046875 C 11.367188 -17.046875 12.53125 -16.832031 13.59375 -16.40625 C 14.65625 -15.988281 15.554688 -15.378906 16.296875 -14.578125 L 15.15625 -13.453125 C 13.84375 -14.785156 12.175781 -15.453125 10.15625 -15.453125 C 8.820312 -15.453125 7.609375 -15.144531 6.515625 -14.53125 C 5.421875 -13.914062 4.5625 -13.078125 3.9375 -12.015625 C 3.320312 -10.953125 3.015625 -9.765625 3.015625 -8.453125 C 3.015625 -7.128906 3.320312 -5.9375 3.9375 -4.875 C 4.5625 -3.8125 5.421875 -2.972656 6.515625 -2.359375 C 7.609375 -1.753906 8.820312 -1.453125 10.15625 -1.453125 C 12.1875 -1.453125 13.851562 -2.125 15.15625 -3.46875 L 16.296875 -2.34375 C 15.554688 -1.539062 14.648438 -0.925781 13.578125 -0.5 C 12.503906 -0.0703125 11.34375 0.140625 10.09375 0.140625 Z M 10.09375 0.140625 "/></g></g></g><g fill="#e3d5b0" fill-opacity="1"><g transform="translate(216.44523, 199.92536)"><g><path d="M 16.875 -16.890625 L 16.875 0 L 15.109375 0 L 15.109375 -7.796875 L 4.53125 -7.796875 L 4.53125 0 L 2.75 0 L 2.75 -16.890625 L 4.53125 -16.890625 L 4.53125 -9.359375 L 15.109375 -9.359375 L 15.109375 -16.890625 Z M 16.875 -16.890625 "/></g></g></g><g fill="#e3d5b0" fill-opacity="1"><g transform="translate(243.759234, 199.92536)"><g/></g></g><g fill="#e3d5b0" fill-opacity="1"><g transform="translate(257.780539, 199.92536)"><g><path d="M 13.34375 -4.515625 L 3.9375 -4.515625 L 1.90625 0 L 0.046875 0 L 7.765625 -16.890625 L 9.53125 -16.890625 L 17.265625 0 L 15.375 0 Z M 12.703125 -5.96875 L 8.640625 -15.046875 L 4.59375 -5.96875 Z M 12.703125 -5.96875 "/></g></g></g><g fill="#e3d5b0" fill-opacity="1"><g transform="translate(282.778587, 199.92536)"><g><path d="M 14.296875 0 L 10.421875 -5.4375 C 9.992188 -5.382812 9.546875 -5.359375 9.078125 -5.359375 L 4.53125 -5.359375 L 4.53125 0 L 2.75 0 L 2.75 -16.890625 L 9.078125 -16.890625 C 11.234375 -16.890625 12.921875 -16.375 14.140625 -15.34375 C 15.367188 -14.320312 15.984375 -12.910156 15.984375 -11.109375 C 15.984375 -9.785156 15.648438 -8.664062 14.984375 -7.75 C 14.316406 -6.84375 13.363281 -6.191406 12.125 -5.796875 L 16.25 0 Z M 9.03125 -6.875 C 10.707031 -6.875 11.984375 -7.242188 12.859375 -7.984375 C 13.742188 -8.722656 14.1875 -9.765625 14.1875 -11.109375 C 14.1875 -12.472656 13.742188 -13.519531 12.859375 -14.25 C 11.984375 -14.988281 10.707031 -15.359375 9.03125 -15.359375 L 4.53125 -15.359375 L 4.53125 -6.875 Z M 9.03125 -6.875 "/></g></g></g><g fill="#e3d5b0" fill-opacity="1"><g transform="translate(307.921376, 199.92536)"><g><path d="M 6.03125 -15.359375 L 0.09375 -15.359375 L 0.09375 -16.890625 L 13.765625 -16.890625 L 13.765625 -15.359375 L 7.828125 -15.359375 L 7.828125 0 L 6.03125 0 Z M 6.03125 -15.359375 "/></g></g></g><g fill="#e3d5b0" fill-opacity="1"><g transform="translate(329.469583, 199.92536)"><g><path d="M 14.703125 -1.546875 L 14.703125 0 L 2.75 0 L 2.75 -16.890625 L 14.34375 -16.890625 L 14.34375 -15.359375 L 4.53125 -15.359375 L 4.53125 -9.34375 L 13.28125 -9.34375 L 13.28125 -7.828125 L 4.53125 -7.828125 L 4.53125 -1.546875 Z M 14.703125 -1.546875 "/></g></g></g><g fill="#e3d5b0" fill-opacity="1"><g transform="translate(353.309634, 199.92536)"><g><path d="M 20.296875 -16.890625 L 20.296875 0 L 18.59375 0 L 18.59375 -13.515625 L 11.953125 -2.15625 L 11.109375 -2.15625 L 4.46875 -13.453125 L 4.46875 0 L 2.75 0 L 2.75 -16.890625 L 4.21875 -16.890625 L 11.5625 -4.375 L 18.828125 -16.890625 Z M 20.296875 -16.890625 "/></g></g></g></svg>